<mxfile host="app.diagrams.net" agent="Mozilla/5.0 (Windows NT 10.0; Win64; x64) AppleWebKit/537.36 (KHTML, like Gecko) Chrome/141.0.0.0 Safari/537.36" version="28.2.7">
  <diagram name="Página-1" id="Z9_n3KxvSQMrBymQMI59">
    <mxGraphModel grid="1" page="0" gridSize="10" guides="1" tooltips="1" connect="1" arrows="1" fold="1" pageScale="1" pageWidth="827" pageHeight="1169" math="0" shadow="0">
      <root>
        <mxCell id="0" />
        <mxCell id="1" parent="0" />
        <mxCell id="IZqIdw7OXzdz4eJ3wNAG-29" style="rounded=0;orthogonalLoop=1;jettySize=auto;html=1;exitX=0.5;exitY=0;exitDx=0;exitDy=0;entryX=0.5;entryY=1;entryDx=0;entryDy=0;endArrow=none;endFill=0;" edge="1" parent="1" source="1bSIPstAePGq8ft_DVN2-1" target="1bSIPstAePGq8ft_DVN2-2">
          <mxGeometry relative="1" as="geometry" />
        </mxCell>
        <mxCell id="IZqIdw7OXzdz4eJ3wNAG-30" style="rounded=0;orthogonalLoop=1;jettySize=auto;html=1;exitX=1;exitY=0;exitDx=0;exitDy=0;endArrow=none;endFill=0;" edge="1" parent="1" source="1bSIPstAePGq8ft_DVN2-1" target="1bSIPstAePGq8ft_DVN2-3">
          <mxGeometry relative="1" as="geometry" />
        </mxCell>
        <mxCell id="IZqIdw7OXzdz4eJ3wNAG-31" style="rounded=0;orthogonalLoop=1;jettySize=auto;html=1;exitX=1;exitY=1;exitDx=0;exitDy=0;endArrow=none;endFill=0;" edge="1" parent="1" source="1bSIPstAePGq8ft_DVN2-1" target="1bSIPstAePGq8ft_DVN2-4">
          <mxGeometry relative="1" as="geometry" />
        </mxCell>
        <mxCell id="G_iNqZapsMMhp_EHwSUg-2" style="rounded=0;orthogonalLoop=1;jettySize=auto;html=1;exitX=1;exitY=0.5;exitDx=0;exitDy=0;entryX=0;entryY=0.5;entryDx=0;entryDy=0;endArrow=none;endFill=0;" edge="1" parent="1" source="1bSIPstAePGq8ft_DVN2-1" target="OP7S2r6b1ITUXMY4u-60-43">
          <mxGeometry relative="1" as="geometry" />
        </mxCell>
        <mxCell id="1bSIPstAePGq8ft_DVN2-1" value="Producto" style="rounded=0;whiteSpace=wrap;html=1;" vertex="1" parent="1">
          <mxGeometry x="587" y="199" width="120" height="60" as="geometry" />
        </mxCell>
        <mxCell id="1bSIPstAePGq8ft_DVN2-2" value="Código&lt;div&gt;Producto&lt;/div&gt;" style="ellipse;whiteSpace=wrap;html=1;fillColor=#CCCCCC;" vertex="1" parent="1">
          <mxGeometry x="607" y="120" width="80" height="50" as="geometry" />
        </mxCell>
        <mxCell id="1bSIPstAePGq8ft_DVN2-3" value="Nombre&lt;div&gt;Producto&lt;/div&gt;" style="ellipse;whiteSpace=wrap;html=1;" vertex="1" parent="1">
          <mxGeometry x="710" y="130" width="80" height="50" as="geometry" />
        </mxCell>
        <mxCell id="1bSIPstAePGq8ft_DVN2-4" value="Tipo" style="ellipse;whiteSpace=wrap;html=1;" vertex="1" parent="1">
          <mxGeometry x="710" y="280" width="80" height="50" as="geometry" />
        </mxCell>
        <mxCell id="1bSIPstAePGq8ft_DVN2-13" style="rounded=0;orthogonalLoop=1;jettySize=auto;html=1;exitX=0.5;exitY=0;exitDx=0;exitDy=0;entryX=0.5;entryY=1;entryDx=0;entryDy=0;endArrow=none;endFill=0;" edge="1" parent="1" source="1bSIPstAePGq8ft_DVN2-5" target="1bSIPstAePGq8ft_DVN2-12">
          <mxGeometry relative="1" as="geometry" />
        </mxCell>
        <mxCell id="IZqIdw7OXzdz4eJ3wNAG-20" style="rounded=0;orthogonalLoop=1;jettySize=auto;html=1;exitX=0;exitY=0.5;exitDx=0;exitDy=0;endArrow=none;endFill=0;" edge="1" parent="1" source="1bSIPstAePGq8ft_DVN2-5" target="1bSIPstAePGq8ft_DVN2-10">
          <mxGeometry relative="1" as="geometry" />
        </mxCell>
        <mxCell id="IZqIdw7OXzdz4eJ3wNAG-21" style="rounded=0;orthogonalLoop=1;jettySize=auto;html=1;exitX=0.5;exitY=1;exitDx=0;exitDy=0;endArrow=none;endFill=0;" edge="1" parent="1" source="1bSIPstAePGq8ft_DVN2-5" target="IZqIdw7OXzdz4eJ3wNAG-19">
          <mxGeometry relative="1" as="geometry" />
        </mxCell>
        <mxCell id="IZqIdw7OXzdz4eJ3wNAG-23" style="rounded=0;orthogonalLoop=1;jettySize=auto;html=1;exitX=1;exitY=0.5;exitDx=0;exitDy=0;endArrow=none;endFill=0;" edge="1" parent="1" source="1bSIPstAePGq8ft_DVN2-5" target="IZqIdw7OXzdz4eJ3wNAG-12">
          <mxGeometry relative="1" as="geometry" />
        </mxCell>
        <mxCell id="IZqIdw7OXzdz4eJ3wNAG-24" style="rounded=0;orthogonalLoop=1;jettySize=auto;html=1;exitX=1;exitY=0;exitDx=0;exitDy=0;endArrow=none;endFill=0;" edge="1" parent="1" source="1bSIPstAePGq8ft_DVN2-5" target="IZqIdw7OXzdz4eJ3wNAG-18">
          <mxGeometry relative="1" as="geometry" />
        </mxCell>
        <mxCell id="1bSIPstAePGq8ft_DVN2-5" value="Vivero" style="rounded=0;whiteSpace=wrap;html=1;" vertex="1" parent="1">
          <mxGeometry x="587" y="1010" width="120" height="60" as="geometry" />
        </mxCell>
        <mxCell id="1bSIPstAePGq8ft_DVN2-10" value="Nombre Vivero" style="ellipse;whiteSpace=wrap;html=1;" vertex="1" parent="1">
          <mxGeometry x="470" y="1015" width="90" height="50" as="geometry" />
        </mxCell>
        <mxCell id="OP7S2r6b1ITUXMY4u-60-8" style="rounded=0;orthogonalLoop=1;jettySize=auto;html=1;exitX=0.5;exitY=0;exitDx=0;exitDy=0;entryX=0.5;entryY=1;entryDx=0;entryDy=0;endArrow=none;endFill=0;" edge="1" parent="1" source="1bSIPstAePGq8ft_DVN2-11" target="OP7S2r6b1ITUXMY4u-60-7">
          <mxGeometry relative="1" as="geometry">
            <mxPoint x="647" y="650" as="targetPoint" />
          </mxGeometry>
        </mxCell>
        <mxCell id="IZqIdw7OXzdz4eJ3wNAG-3" style="rounded=0;orthogonalLoop=1;jettySize=auto;html=1;exitX=1;exitY=0;exitDx=0;exitDy=0;endArrow=none;endFill=0;" edge="1" parent="1" source="1bSIPstAePGq8ft_DVN2-11" target="IZqIdw7OXzdz4eJ3wNAG-2">
          <mxGeometry relative="1" as="geometry">
            <mxPoint x="728.5" y="669.9999999999998" as="sourcePoint" />
          </mxGeometry>
        </mxCell>
        <mxCell id="IZqIdw7OXzdz4eJ3wNAG-4" style="rounded=0;orthogonalLoop=1;jettySize=auto;html=1;exitX=1;exitY=0.25;exitDx=0;exitDy=0;endArrow=none;endFill=0;" edge="1" parent="1" source="1bSIPstAePGq8ft_DVN2-11" target="IZqIdw7OXzdz4eJ3wNAG-1">
          <mxGeometry relative="1" as="geometry">
            <mxPoint x="728.5" y="684.9999999999998" as="sourcePoint" />
          </mxGeometry>
        </mxCell>
        <mxCell id="IZqIdw7OXzdz4eJ3wNAG-7" style="rounded=0;orthogonalLoop=1;jettySize=auto;html=1;exitX=1;exitY=0.75;exitDx=0;exitDy=0;endArrow=none;endFill=0;" edge="1" parent="1" source="1bSIPstAePGq8ft_DVN2-11" target="OP7S2r6b1ITUXMY4u-60-5">
          <mxGeometry relative="1" as="geometry">
            <mxPoint x="728.5" y="714.9999999999998" as="sourcePoint" />
          </mxGeometry>
        </mxCell>
        <mxCell id="IZqIdw7OXzdz4eJ3wNAG-26" style="rounded=0;orthogonalLoop=1;jettySize=auto;html=1;exitX=1;exitY=1;exitDx=0;exitDy=0;endArrow=none;endFill=0;" edge="1" parent="1" source="1bSIPstAePGq8ft_DVN2-11" target="IZqIdw7OXzdz4eJ3wNAG-25">
          <mxGeometry relative="1" as="geometry">
            <mxPoint x="728.5" y="729.9999999999998" as="sourcePoint" />
          </mxGeometry>
        </mxCell>
        <mxCell id="G_iNqZapsMMhp_EHwSUg-4" style="rounded=0;orthogonalLoop=1;jettySize=auto;html=1;exitX=1;exitY=0.5;exitDx=0;exitDy=0;entryX=0;entryY=0.5;entryDx=0;entryDy=0;endArrow=none;endFill=0;" edge="1" parent="1" source="1bSIPstAePGq8ft_DVN2-11" target="1nAmam3GA3gQKHaOLKT9-1">
          <mxGeometry relative="1" as="geometry" />
        </mxCell>
        <mxCell id="1bSIPstAePGq8ft_DVN2-11" value="Zona" style="rounded=0;whiteSpace=wrap;html=1;" vertex="1" parent="1">
          <mxGeometry x="587" y="670" width="120" height="60" as="geometry" />
        </mxCell>
        <mxCell id="1bSIPstAePGq8ft_DVN2-14" style="rounded=0;orthogonalLoop=1;jettySize=auto;html=1;entryX=0.5;entryY=1;entryDx=0;entryDy=0;endArrow=none;endFill=0;exitX=0.5;exitY=0;exitDx=0;exitDy=0;" edge="1" parent="1" source="1bSIPstAePGq8ft_DVN2-12" target="1bSIPstAePGq8ft_DVN2-11">
          <mxGeometry relative="1" as="geometry">
            <mxPoint x="547" y="700" as="sourcePoint" />
          </mxGeometry>
        </mxCell>
        <mxCell id="1bSIPstAePGq8ft_DVN2-12" value="Tiene" style="shape=rhombus;perimeter=rhombusPerimeter;whiteSpace=wrap;html=1;align=center;" vertex="1" parent="1">
          <mxGeometry x="587" y="843" width="120" height="60" as="geometry" />
        </mxCell>
        <mxCell id="1bSIPstAePGq8ft_DVN2-15" value="E" style="text;html=1;align=center;verticalAlign=middle;resizable=0;points=[];autosize=1;strokeColor=none;fillColor=none;" vertex="1" parent="1">
          <mxGeometry x="632" y="840" width="30" height="30" as="geometry" />
        </mxCell>
        <mxCell id="OP7S2r6b1ITUXMY4u-60-2" value="Latitud" style="ellipse;whiteSpace=wrap;html=1;" vertex="1" parent="1">
          <mxGeometry x="871.5" y="510" width="80" height="50" as="geometry" />
        </mxCell>
        <mxCell id="OP7S2r6b1ITUXMY4u-60-3" value="Longitud" style="ellipse;whiteSpace=wrap;html=1;" vertex="1" parent="1">
          <mxGeometry x="871.5" y="580" width="80" height="50" as="geometry" />
        </mxCell>
        <mxCell id="OP7S2r6b1ITUXMY4u-60-5" value="Nombre Zona" style="ellipse;whiteSpace=wrap;html=1;" vertex="1" parent="1">
          <mxGeometry x="759.5" y="720" width="88" height="50" as="geometry" />
        </mxCell>
        <mxCell id="OP7S2r6b1ITUXMY4u-60-11" style="rounded=0;orthogonalLoop=1;jettySize=auto;html=1;exitX=0.5;exitY=0;exitDx=0;exitDy=0;entryX=0.5;entryY=1;entryDx=0;entryDy=0;endArrow=none;endFill=0;" edge="1" parent="1" source="OP7S2r6b1ITUXMY4u-60-7" target="1bSIPstAePGq8ft_DVN2-1">
          <mxGeometry relative="1" as="geometry" />
        </mxCell>
        <mxCell id="IZqIdw7OXzdz4eJ3wNAG-27" style="rounded=0;orthogonalLoop=1;jettySize=auto;html=1;exitX=0;exitY=0.5;exitDx=0;exitDy=0;endArrow=none;endFill=0;" edge="1" parent="1" source="OP7S2r6b1ITUXMY4u-60-7" target="OP7S2r6b1ITUXMY4u-60-15">
          <mxGeometry relative="1" as="geometry" />
        </mxCell>
        <mxCell id="OP7S2r6b1ITUXMY4u-60-7" value="Tiene" style="shape=rhombus;perimeter=rhombusPerimeter;whiteSpace=wrap;html=1;align=center;" vertex="1" parent="1">
          <mxGeometry x="587" y="430" width="120" height="60" as="geometry" />
        </mxCell>
        <mxCell id="OP7S2r6b1ITUXMY4u-60-13" value="" style="endArrow=none;html=1;rounded=0;entryX=0.25;entryY=0;entryDx=0;entryDy=0;exitX=0.25;exitY=1;exitDx=0;exitDy=0;" edge="1" parent="1">
          <mxGeometry width="50" height="50" relative="1" as="geometry">
            <mxPoint x="602" y="730" as="sourcePoint" />
            <mxPoint x="602" y="670" as="targetPoint" />
          </mxGeometry>
        </mxCell>
        <mxCell id="OP7S2r6b1ITUXMY4u-60-14" value="" style="endArrow=none;html=1;rounded=0;entryX=0.25;entryY=0;entryDx=0;entryDy=0;exitX=0.25;exitY=1;exitDx=0;exitDy=0;" edge="1" parent="1">
          <mxGeometry width="50" height="50" relative="1" as="geometry">
            <mxPoint x="692" y="730" as="sourcePoint" />
            <mxPoint x="692" y="670" as="targetPoint" />
          </mxGeometry>
        </mxCell>
        <mxCell id="OP7S2r6b1ITUXMY4u-60-15" value="Unidades&lt;div&gt;Stock&lt;/div&gt;" style="ellipse;whiteSpace=wrap;html=1;" vertex="1" parent="1">
          <mxGeometry x="480" y="435" width="80" height="50" as="geometry" />
        </mxCell>
        <mxCell id="OP7S2r6b1ITUXMY4u-60-26" style="rounded=0;orthogonalLoop=1;jettySize=auto;html=1;exitX=1;exitY=0.5;exitDx=0;exitDy=0;entryX=0;entryY=0.5;entryDx=0;entryDy=0;endArrow=none;endFill=0;" edge="1" parent="1" source="OP7S2r6b1ITUXMY4u-60-16" target="1bSIPstAePGq8ft_DVN2-11">
          <mxGeometry relative="1" as="geometry" />
        </mxCell>
        <mxCell id="IZqIdw7OXzdz4eJ3wNAG-34" style="rounded=0;orthogonalLoop=1;jettySize=auto;html=1;exitX=0;exitY=1;exitDx=0;exitDy=0;endArrow=none;endFill=0;" edge="1" parent="1" source="OP7S2r6b1ITUXMY4u-60-16" target="OP7S2r6b1ITUXMY4u-60-22">
          <mxGeometry relative="1" as="geometry" />
        </mxCell>
        <mxCell id="IZqIdw7OXzdz4eJ3wNAG-35" style="rounded=0;orthogonalLoop=1;jettySize=auto;html=1;exitX=0;exitY=0.5;exitDx=0;exitDy=0;endArrow=none;endFill=0;" edge="1" parent="1" source="OP7S2r6b1ITUXMY4u-60-16" target="OP7S2r6b1ITUXMY4u-60-21">
          <mxGeometry relative="1" as="geometry" />
        </mxCell>
        <mxCell id="IZqIdw7OXzdz4eJ3wNAG-36" style="rounded=0;orthogonalLoop=1;jettySize=auto;html=1;exitX=0;exitY=0;exitDx=0;exitDy=0;endArrow=none;endFill=0;" edge="1" parent="1" source="OP7S2r6b1ITUXMY4u-60-16" target="OP7S2r6b1ITUXMY4u-60-20">
          <mxGeometry relative="1" as="geometry" />
        </mxCell>
        <mxCell id="IZqIdw7OXzdz4eJ3wNAG-37" style="rounded=0;orthogonalLoop=1;jettySize=auto;html=1;exitX=0;exitY=0.75;exitDx=0;exitDy=0;endArrow=none;endFill=0;" edge="1" parent="1" source="OP7S2r6b1ITUXMY4u-60-16" target="IZqIdw7OXzdz4eJ3wNAG-32">
          <mxGeometry relative="1" as="geometry" />
        </mxCell>
        <mxCell id="IZqIdw7OXzdz4eJ3wNAG-38" style="rounded=0;orthogonalLoop=1;jettySize=auto;html=1;exitX=0;exitY=0.25;exitDx=0;exitDy=0;endArrow=none;endFill=0;" edge="1" parent="1" source="OP7S2r6b1ITUXMY4u-60-16" target="mt9qzX7SWxq0fzXAwC7F-23">
          <mxGeometry relative="1" as="geometry" />
        </mxCell>
        <mxCell id="OP7S2r6b1ITUXMY4u-60-16" value="Empleado" style="rounded=0;whiteSpace=wrap;html=1;" vertex="1" parent="1">
          <mxGeometry x="60" y="670" width="120" height="60" as="geometry" />
        </mxCell>
        <mxCell id="OP7S2r6b1ITUXMY4u-60-20" value="DNI" style="ellipse;whiteSpace=wrap;html=1;fillColor=#CCCCCC;" vertex="1" parent="1">
          <mxGeometry x="-60" y="585" width="90" height="50" as="geometry" />
        </mxCell>
        <mxCell id="OP7S2r6b1ITUXMY4u-60-21" value="Nombre" style="ellipse;whiteSpace=wrap;html=1;" vertex="1" parent="1">
          <mxGeometry x="-60" y="675" width="90" height="50" as="geometry" />
        </mxCell>
        <mxCell id="OP7S2r6b1ITUXMY4u-60-22" value="Apellidos" style="ellipse;whiteSpace=wrap;html=1;" vertex="1" parent="1">
          <mxGeometry x="-60" y="765" width="90" height="50" as="geometry" />
        </mxCell>
        <mxCell id="OP7S2r6b1ITUXMY4u-60-27" value="Nombre de la tarea" style="ellipse;whiteSpace=wrap;html=1;fillColor=#FFFFFF;" vertex="1" parent="1">
          <mxGeometry x="205" y="460" width="100" height="50" as="geometry" />
        </mxCell>
        <mxCell id="OP7S2r6b1ITUXMY4u-60-32" style="rounded=0;orthogonalLoop=1;jettySize=auto;html=1;exitX=0.5;exitY=0;exitDx=0;exitDy=0;endArrow=none;endFill=0;entryX=0;entryY=0.5;entryDx=0;entryDy=0;" edge="1" parent="1" source="OP7S2r6b1ITUXMY4u-60-28" target="OP7S2r6b1ITUXMY4u-60-33">
          <mxGeometry relative="1" as="geometry">
            <mxPoint x="-90" y="135" as="targetPoint" />
          </mxGeometry>
        </mxCell>
        <mxCell id="OP7S2r6b1ITUXMY4u-60-35" style="rounded=0;orthogonalLoop=1;jettySize=auto;html=1;exitX=1;exitY=0.5;exitDx=0;exitDy=0;entryX=0.5;entryY=0;entryDx=0;entryDy=0;endArrow=none;endFill=0;" edge="1" parent="1" source="OP7S2r6b1ITUXMY4u-60-28" target="OP7S2r6b1ITUXMY4u-60-34">
          <mxGeometry relative="1" as="geometry" />
        </mxCell>
        <mxCell id="OP7S2r6b1ITUXMY4u-60-28" value="" style="triangle;whiteSpace=wrap;html=1;rotation=90;" vertex="1" parent="1">
          <mxGeometry x="-210" y="75" width="40" height="120" as="geometry" />
        </mxCell>
        <mxCell id="OP7S2r6b1ITUXMY4u-60-31" style="rounded=0;orthogonalLoop=1;jettySize=auto;html=1;exitX=0.5;exitY=1;exitDx=0;exitDy=0;entryX=0;entryY=0.5;entryDx=0;entryDy=0;endArrow=none;endFill=0;" edge="1" parent="1" source="OP7S2r6b1ITUXMY4u-60-30" target="OP7S2r6b1ITUXMY4u-60-28">
          <mxGeometry relative="1" as="geometry" />
        </mxCell>
        <mxCell id="OP7S2r6b1ITUXMY4u-60-30" value="Cliente" style="rounded=0;whiteSpace=wrap;html=1;" vertex="1" parent="1">
          <mxGeometry x="-250" y="15" width="120" height="60" as="geometry" />
        </mxCell>
        <mxCell id="OP7S2r6b1ITUXMY4u-60-33" value="Tipo" style="ellipse;whiteSpace=wrap;html=1;aspect=fixed;" vertex="1" parent="1">
          <mxGeometry x="-112.5" y="112.5" width="45" height="45" as="geometry" />
        </mxCell>
        <mxCell id="OP7S2r6b1ITUXMY4u-60-39" style="rounded=0;orthogonalLoop=1;jettySize=auto;html=1;exitX=1;exitY=0.5;exitDx=0;exitDy=0;entryX=0;entryY=0.5;entryDx=0;entryDy=0;endArrow=none;endFill=0;" edge="1" parent="1" source="OP7S2r6b1ITUXMY4u-60-34" target="OP7S2r6b1ITUXMY4u-60-38">
          <mxGeometry relative="1" as="geometry">
            <mxPoint x="294.5" y="-115" as="targetPoint" />
          </mxGeometry>
        </mxCell>
        <mxCell id="IZqIdw7OXzdz4eJ3wNAG-57" style="rounded=0;orthogonalLoop=1;jettySize=auto;html=1;exitX=0.5;exitY=1;exitDx=0;exitDy=0;endArrow=none;endFill=0;" edge="1" parent="1" source="OP7S2r6b1ITUXMY4u-60-34" target="mt9qzX7SWxq0fzXAwC7F-24">
          <mxGeometry relative="1" as="geometry" />
        </mxCell>
        <mxCell id="IZqIdw7OXzdz4eJ3wNAG-58" style="rounded=0;orthogonalLoop=1;jettySize=auto;html=1;exitX=0;exitY=1;exitDx=0;exitDy=0;endArrow=none;endFill=0;" edge="1" parent="1" source="OP7S2r6b1ITUXMY4u-60-34" target="IZqIdw7OXzdz4eJ3wNAG-56">
          <mxGeometry relative="1" as="geometry" />
        </mxCell>
        <mxCell id="IZqIdw7OXzdz4eJ3wNAG-59" style="rounded=0;orthogonalLoop=1;jettySize=auto;html=1;exitX=0;exitY=0.5;exitDx=0;exitDy=0;endArrow=none;endFill=0;" edge="1" parent="1" source="OP7S2r6b1ITUXMY4u-60-34" target="IZqIdw7OXzdz4eJ3wNAG-55">
          <mxGeometry relative="1" as="geometry" />
        </mxCell>
        <mxCell id="OP7S2r6b1ITUXMY4u-60-34" value="Cliente Tajinaste PLus" style="rounded=0;whiteSpace=wrap;html=1;" vertex="1" parent="1">
          <mxGeometry x="-250" y="200" width="120" height="60" as="geometry" />
        </mxCell>
        <mxCell id="OP7S2r6b1ITUXMY4u-60-40" style="rounded=0;orthogonalLoop=1;jettySize=auto;html=1;exitX=1;exitY=0.5;exitDx=0;exitDy=0;entryX=0;entryY=0.5;entryDx=0;entryDy=0;endArrow=none;endFill=0;" edge="1" parent="1" source="OP7S2r6b1ITUXMY4u-60-38" target="1bSIPstAePGq8ft_DVN2-1">
          <mxGeometry relative="1" as="geometry">
            <mxPoint x="510" y="235" as="sourcePoint" />
          </mxGeometry>
        </mxCell>
        <mxCell id="OP7S2r6b1ITUXMY4u-60-44" style="rounded=0;orthogonalLoop=1;jettySize=auto;html=1;exitX=0.5;exitY=1;exitDx=0;exitDy=0;entryX=0.5;entryY=0;entryDx=0;entryDy=0;endArrow=none;endFill=0;" edge="1" parent="1" source="OP7S2r6b1ITUXMY4u-60-38" target="OP7S2r6b1ITUXMY4u-60-16">
          <mxGeometry relative="1" as="geometry" />
        </mxCell>
        <mxCell id="IZqIdw7OXzdz4eJ3wNAG-39" style="rounded=0;orthogonalLoop=1;jettySize=auto;html=1;exitX=0.5;exitY=0;exitDx=0;exitDy=0;endArrow=none;endFill=0;" edge="1" parent="1" source="OP7S2r6b1ITUXMY4u-60-38" target="OP7S2r6b1ITUXMY4u-60-42">
          <mxGeometry relative="1" as="geometry" />
        </mxCell>
        <mxCell id="IZqIdw7OXzdz4eJ3wNAG-40" style="rounded=0;orthogonalLoop=1;jettySize=auto;html=1;exitX=0.5;exitY=0;exitDx=0;exitDy=0;endArrow=none;endFill=0;" edge="1" parent="1" source="OP7S2r6b1ITUXMY4u-60-38" target="OP7S2r6b1ITUXMY4u-60-41">
          <mxGeometry relative="1" as="geometry" />
        </mxCell>
        <mxCell id="OP7S2r6b1ITUXMY4u-60-38" value="Pedido" style="shape=rhombus;perimeter=rhombusPerimeter;whiteSpace=wrap;html=1;align=center;" vertex="1" parent="1">
          <mxGeometry x="60" y="200" width="120" height="60" as="geometry" />
        </mxCell>
        <mxCell id="OP7S2r6b1ITUXMY4u-60-41" value="Unidades" style="ellipse;whiteSpace=wrap;html=1;" vertex="1" parent="1">
          <mxGeometry x="137.5" y="140" width="80" height="50" as="geometry" />
        </mxCell>
        <mxCell id="OP7S2r6b1ITUXMY4u-60-42" value="Fecha" style="ellipse;whiteSpace=wrap;html=1;" vertex="1" parent="1">
          <mxGeometry x="22.5" y="140" width="80" height="50" as="geometry" />
        </mxCell>
        <mxCell id="OP7S2r6b1ITUXMY4u-60-43" value="Precio" style="ellipse;whiteSpace=wrap;html=1;" vertex="1" parent="1">
          <mxGeometry x="741" y="204" width="80" height="50" as="geometry" />
        </mxCell>
        <mxCell id="IZqIdw7OXzdz4eJ3wNAG-52" style="rounded=0;orthogonalLoop=1;jettySize=auto;html=1;exitX=0;exitY=0.5;exitDx=0;exitDy=0;entryX=1;entryY=0.5;entryDx=0;entryDy=0;endArrow=none;endFill=0;" edge="1" parent="1" source="OP7S2r6b1ITUXMY4u-60-45" target="OP7S2r6b1ITUXMY4u-60-30">
          <mxGeometry relative="1" as="geometry" />
        </mxCell>
        <mxCell id="OP7S2r6b1ITUXMY4u-60-45" value="DNI" style="ellipse;whiteSpace=wrap;html=1;fillColor=#CCCCCC;" vertex="1" parent="1">
          <mxGeometry x="-90" y="20" width="50" height="50" as="geometry" />
        </mxCell>
        <mxCell id="OP7S2r6b1ITUXMY4u-60-47" value="gestiona" style="text;html=1;align=center;verticalAlign=middle;resizable=0;points=[];autosize=1;strokeColor=none;fillColor=none;" vertex="1" parent="1">
          <mxGeometry x="120" y="640" width="70" height="30" as="geometry" />
        </mxCell>
        <mxCell id="OP7S2r6b1ITUXMY4u-60-48" value="(0,1)" style="text;html=1;align=center;verticalAlign=middle;resizable=0;points=[];autosize=1;strokeColor=none;fillColor=none;" vertex="1" parent="1">
          <mxGeometry x="70" y="640" width="50" height="30" as="geometry" />
        </mxCell>
        <mxCell id="OP7S2r6b1ITUXMY4u-60-49" value="(1, 1)" style="text;html=1;align=center;verticalAlign=middle;resizable=0;points=[];autosize=1;strokeColor=none;fillColor=none;" vertex="1" parent="1">
          <mxGeometry x="-131" y="200" width="50" height="30" as="geometry" />
        </mxCell>
        <mxCell id="OP7S2r6b1ITUXMY4u-60-50" value="(1, M)" style="text;html=1;align=center;verticalAlign=middle;resizable=0;points=[];autosize=1;strokeColor=none;fillColor=none;" vertex="1" parent="1">
          <mxGeometry x="540" y="199" width="50" height="30" as="geometry" />
        </mxCell>
        <mxCell id="OP7S2r6b1ITUXMY4u-60-51" value="(1, 1)" style="text;html=1;align=center;verticalAlign=middle;resizable=0;points=[];autosize=1;strokeColor=none;fillColor=none;" vertex="1" parent="1">
          <mxGeometry x="647" y="980" width="50" height="30" as="geometry" />
        </mxCell>
        <mxCell id="OP7S2r6b1ITUXMY4u-60-52" value="(1, N)" style="text;html=1;align=center;verticalAlign=middle;resizable=0;points=[];autosize=1;strokeColor=none;fillColor=none;" vertex="1" parent="1">
          <mxGeometry x="647" y="730" width="50" height="30" as="geometry" />
        </mxCell>
        <mxCell id="OP7S2r6b1ITUXMY4u-60-54" value="(1, N)" style="text;html=1;align=center;verticalAlign=middle;resizable=0;points=[];autosize=1;strokeColor=none;fillColor=none;" vertex="1" parent="1">
          <mxGeometry x="647" y="259" width="50" height="30" as="geometry" />
        </mxCell>
        <mxCell id="OP7S2r6b1ITUXMY4u-60-55" value="(1, M)" style="text;html=1;align=center;verticalAlign=middle;resizable=0;points=[];autosize=1;strokeColor=none;fillColor=none;" vertex="1" parent="1">
          <mxGeometry x="647" y="640" width="50" height="30" as="geometry" />
        </mxCell>
        <mxCell id="OP7S2r6b1ITUXMY4u-60-56" value="(1, N)" style="text;html=1;align=center;verticalAlign=middle;resizable=0;points=[];autosize=1;strokeColor=none;fillColor=none;" vertex="1" parent="1">
          <mxGeometry x="180" y="670" width="50" height="30" as="geometry" />
        </mxCell>
        <mxCell id="OP7S2r6b1ITUXMY4u-60-57" value="(1, N)" style="text;html=1;align=center;verticalAlign=middle;resizable=0;points=[];autosize=1;strokeColor=none;fillColor=none;" vertex="1" parent="1">
          <mxGeometry x="537" y="670" width="50" height="30" as="geometry" />
        </mxCell>
        <mxCell id="mt9qzX7SWxq0fzXAwC7F-18" style="rounded=0;orthogonalLoop=1;jettySize=auto;html=1;exitX=0.5;exitY=1;exitDx=0;exitDy=0;entryX=0.5;entryY=0;entryDx=0;entryDy=0;endArrow=none;endFill=0;" edge="1" parent="1" source="mt9qzX7SWxq0fzXAwC7F-3" target="mt9qzX7SWxq0fzXAwC7F-17">
          <mxGeometry relative="1" as="geometry" />
        </mxCell>
        <mxCell id="IZqIdw7OXzdz4eJ3wNAG-48" style="rounded=0;orthogonalLoop=1;jettySize=auto;html=1;exitX=0.5;exitY=1;exitDx=0;exitDy=0;entryX=0.5;entryY=0;entryDx=0;entryDy=0;endArrow=none;endFill=0;" edge="1" parent="1" source="mt9qzX7SWxq0fzXAwC7F-3" target="IZqIdw7OXzdz4eJ3wNAG-47">
          <mxGeometry relative="1" as="geometry" />
        </mxCell>
        <mxCell id="rf00doKjsVnQoZCSyVtT-3" style="rounded=0;orthogonalLoop=1;jettySize=auto;html=1;exitX=0.5;exitY=1;exitDx=0;exitDy=0;entryX=0.5;entryY=0;entryDx=0;entryDy=0;endArrow=none;endFill=0;" edge="1" parent="1" source="mt9qzX7SWxq0fzXAwC7F-3" target="rf00doKjsVnQoZCSyVtT-2">
          <mxGeometry relative="1" as="geometry" />
        </mxCell>
        <mxCell id="mt9qzX7SWxq0fzXAwC7F-3" value="Puesto" style="shape=rhombus;perimeter=rhombusPerimeter;whiteSpace=wrap;html=1;align=center;" vertex="1" parent="1">
          <mxGeometry x="305" y="670" width="120" height="60" as="geometry" />
        </mxCell>
        <mxCell id="mt9qzX7SWxq0fzXAwC7F-4" value="Descripción de la tarea" style="ellipse;whiteSpace=wrap;html=1;fillColor=#FFFFFF;" vertex="1" parent="1">
          <mxGeometry x="170.25" y="535" width="109.5" height="50" as="geometry" />
        </mxCell>
        <mxCell id="IZqIdw7OXzdz4eJ3wNAG-49" style="rounded=0;orthogonalLoop=1;jettySize=auto;html=1;exitX=0;exitY=0.5;exitDx=0;exitDy=0;entryX=1;entryY=0.5;entryDx=0;entryDy=0;endArrow=none;endFill=0;" edge="1" parent="1" source="mt9qzX7SWxq0fzXAwC7F-17" target="mt9qzX7SWxq0fzXAwC7F-4">
          <mxGeometry relative="1" as="geometry" />
        </mxCell>
        <mxCell id="IZqIdw7OXzdz4eJ3wNAG-50" style="rounded=0;orthogonalLoop=1;jettySize=auto;html=1;exitX=0.5;exitY=0;exitDx=0;exitDy=0;entryX=0.5;entryY=1;entryDx=0;entryDy=0;endArrow=none;endFill=0;" edge="1" parent="1" source="mt9qzX7SWxq0fzXAwC7F-17" target="mt9qzX7SWxq0fzXAwC7F-20">
          <mxGeometry relative="1" as="geometry" />
        </mxCell>
        <mxCell id="IZqIdw7OXzdz4eJ3wNAG-51" style="rounded=0;orthogonalLoop=1;jettySize=auto;html=1;exitX=0;exitY=0;exitDx=0;exitDy=0;endArrow=none;endFill=0;" edge="1" parent="1" source="mt9qzX7SWxq0fzXAwC7F-17" target="OP7S2r6b1ITUXMY4u-60-27">
          <mxGeometry relative="1" as="geometry" />
        </mxCell>
        <mxCell id="mt9qzX7SWxq0fzXAwC7F-17" value="Tarea" style="rounded=0;whiteSpace=wrap;html=1;" vertex="1" parent="1">
          <mxGeometry x="305" y="529.62" width="120" height="60" as="geometry" />
        </mxCell>
        <mxCell id="mt9qzX7SWxq0fzXAwC7F-20" value="Código Tarea" style="ellipse;whiteSpace=wrap;html=1;fillColor=#CCCCCC;" vertex="1" parent="1">
          <mxGeometry x="320" y="449.25" width="90" height="50" as="geometry" />
        </mxCell>
        <mxCell id="mt9qzX7SWxq0fzXAwC7F-23" value="Cargo" style="ellipse;whiteSpace=wrap;html=1;" vertex="1" parent="1">
          <mxGeometry x="-140" y="620" width="90" height="50" as="geometry" />
        </mxCell>
        <mxCell id="mt9qzX7SWxq0fzXAwC7F-24" value="Bonificación" style="ellipse;whiteSpace=wrap;html=1;dashed=1;" vertex="1" parent="1">
          <mxGeometry x="-230" y="289" width="80" height="50" as="geometry" />
        </mxCell>
        <mxCell id="IZqIdw7OXzdz4eJ3wNAG-1" value="Código Zona" style="ellipse;whiteSpace=wrap;html=1;fillColor=#CCCCCC;" vertex="1" parent="1">
          <mxGeometry x="758.5" y="635" width="90" height="50" as="geometry" />
        </mxCell>
        <mxCell id="IZqIdw7OXzdz4eJ3wNAG-5" style="rounded=0;orthogonalLoop=1;jettySize=auto;html=1;exitX=1;exitY=0.5;exitDx=0;exitDy=0;endArrow=none;endFill=0;" edge="1" parent="1" source="IZqIdw7OXzdz4eJ3wNAG-2" target="OP7S2r6b1ITUXMY4u-60-2">
          <mxGeometry relative="1" as="geometry" />
        </mxCell>
        <mxCell id="IZqIdw7OXzdz4eJ3wNAG-6" style="rounded=0;orthogonalLoop=1;jettySize=auto;html=1;exitX=1;exitY=0.5;exitDx=0;exitDy=0;endArrow=none;endFill=0;" edge="1" parent="1" source="IZqIdw7OXzdz4eJ3wNAG-2" target="OP7S2r6b1ITUXMY4u-60-3">
          <mxGeometry relative="1" as="geometry" />
        </mxCell>
        <mxCell id="IZqIdw7OXzdz4eJ3wNAG-2" value="&lt;u&gt;Coordenadas&lt;/u&gt;" style="ellipse;whiteSpace=wrap;html=1;fillColor=#FFFFFF;" vertex="1" parent="1">
          <mxGeometry x="758.5" y="550" width="90" height="50" as="geometry" />
        </mxCell>
        <mxCell id="IZqIdw7OXzdz4eJ3wNAG-12" value="Teléfono" style="ellipse;shape=doubleEllipse;margin=3;whiteSpace=wrap;html=1;align=center;" vertex="1" parent="1">
          <mxGeometry x="736" y="1015" width="90" height="50" as="geometry" />
        </mxCell>
        <mxCell id="IZqIdw7OXzdz4eJ3wNAG-14" value="Latitud" style="ellipse;whiteSpace=wrap;html=1;" vertex="1" parent="1">
          <mxGeometry x="850" y="900" width="80" height="50" as="geometry" />
        </mxCell>
        <mxCell id="IZqIdw7OXzdz4eJ3wNAG-15" value="Longitud" style="ellipse;whiteSpace=wrap;html=1;" vertex="1" parent="1">
          <mxGeometry x="850" y="970" width="80" height="50" as="geometry" />
        </mxCell>
        <mxCell id="IZqIdw7OXzdz4eJ3wNAG-16" style="rounded=0;orthogonalLoop=1;jettySize=auto;html=1;exitX=1;exitY=0.5;exitDx=0;exitDy=0;endArrow=none;endFill=0;" edge="1" parent="1" source="IZqIdw7OXzdz4eJ3wNAG-18" target="IZqIdw7OXzdz4eJ3wNAG-14">
          <mxGeometry relative="1" as="geometry" />
        </mxCell>
        <mxCell id="IZqIdw7OXzdz4eJ3wNAG-17" style="rounded=0;orthogonalLoop=1;jettySize=auto;html=1;exitX=1;exitY=0.5;exitDx=0;exitDy=0;endArrow=none;endFill=0;" edge="1" parent="1" source="IZqIdw7OXzdz4eJ3wNAG-18" target="IZqIdw7OXzdz4eJ3wNAG-15">
          <mxGeometry relative="1" as="geometry" />
        </mxCell>
        <mxCell id="IZqIdw7OXzdz4eJ3wNAG-18" value="&lt;u&gt;Coordenadas&lt;/u&gt;" style="ellipse;whiteSpace=wrap;html=1;fillColor=#FFFFFF;" vertex="1" parent="1">
          <mxGeometry x="736" y="935" width="90" height="50" as="geometry" />
        </mxCell>
        <mxCell id="IZqIdw7OXzdz4eJ3wNAG-19" value="Código Vivero" style="ellipse;whiteSpace=wrap;html=1;fillColor=#CCCCCC;" vertex="1" parent="1">
          <mxGeometry x="602" y="1100" width="90" height="50" as="geometry" />
        </mxCell>
        <mxCell id="IZqIdw7OXzdz4eJ3wNAG-25" value="Superficie" style="ellipse;whiteSpace=wrap;html=1;" vertex="1" parent="1">
          <mxGeometry x="759.5" y="800" width="88" height="50" as="geometry" />
        </mxCell>
        <mxCell id="IZqIdw7OXzdz4eJ3wNAG-32" value="Salario" style="ellipse;whiteSpace=wrap;html=1;" vertex="1" parent="1">
          <mxGeometry x="-140" y="730" width="90" height="50" as="geometry" />
        </mxCell>
        <mxCell id="IZqIdw7OXzdz4eJ3wNAG-46" value="(1, N)" style="text;html=1;align=center;verticalAlign=middle;resizable=0;points=[];autosize=1;strokeColor=none;fillColor=none;" vertex="1" parent="1">
          <mxGeometry x="363" y="590.37" width="50" height="30" as="geometry" />
        </mxCell>
        <mxCell id="IZqIdw7OXzdz4eJ3wNAG-47" value="Fecha Inicio" style="ellipse;whiteSpace=wrap;html=1;" vertex="1" parent="1">
          <mxGeometry x="275" y="750" width="80" height="50" as="geometry" />
        </mxCell>
        <mxCell id="IZqIdw7OXzdz4eJ3wNAG-53" value="realiza" style="text;html=1;align=center;verticalAlign=middle;resizable=0;points=[];autosize=1;strokeColor=none;fillColor=none;" vertex="1" parent="1">
          <mxGeometry x="-131" y="229" width="60" height="30" as="geometry" />
        </mxCell>
        <mxCell id="IZqIdw7OXzdz4eJ3wNAG-54" value="comprado" style="text;html=1;align=center;verticalAlign=middle;resizable=0;points=[];autosize=1;strokeColor=none;fillColor=none;" vertex="1" parent="1">
          <mxGeometry x="507" y="229" width="80" height="30" as="geometry" />
        </mxCell>
        <mxCell id="IZqIdw7OXzdz4eJ3wNAG-55" value="Nombre" style="ellipse;whiteSpace=wrap;html=1;" vertex="1" parent="1">
          <mxGeometry x="-360" y="205" width="80" height="50" as="geometry" />
        </mxCell>
        <mxCell id="IZqIdw7OXzdz4eJ3wNAG-56" value="Apellidos" style="ellipse;whiteSpace=wrap;html=1;" vertex="1" parent="1">
          <mxGeometry x="-330" y="270" width="80" height="50" as="geometry" />
        </mxCell>
        <mxCell id="IZqIdw7OXzdz4eJ3wNAG-60" value="hechas" style="text;html=1;align=center;verticalAlign=middle;resizable=0;points=[];autosize=1;strokeColor=none;fillColor=none;" vertex="1" parent="1">
          <mxGeometry x="305" y="589.62" width="60" height="30" as="geometry" />
        </mxCell>
        <mxCell id="IZqIdw7OXzdz4eJ3wNAG-61" value="realiza" style="text;html=1;align=center;verticalAlign=middle;resizable=0;points=[];autosize=1;strokeColor=none;fillColor=none;" vertex="1" parent="1">
          <mxGeometry x="180" y="700" width="60" height="30" as="geometry" />
        </mxCell>
        <mxCell id="IZqIdw7OXzdz4eJ3wNAG-62" value="lugar" style="text;html=1;align=center;verticalAlign=middle;resizable=0;points=[];autosize=1;strokeColor=none;fillColor=none;" vertex="1" parent="1">
          <mxGeometry x="537" y="700" width="50" height="30" as="geometry" />
        </mxCell>
        <mxCell id="1nAmam3GA3gQKHaOLKT9-1" value="Productividad" style="ellipse;whiteSpace=wrap;html=1;dashed=1;" vertex="1" parent="1">
          <mxGeometry x="867.25" y="675" width="88.5" height="50" as="geometry" />
        </mxCell>
        <mxCell id="rf00doKjsVnQoZCSyVtT-1" style="rounded=0;orthogonalLoop=1;jettySize=auto;html=1;exitX=0.5;exitY=0;exitDx=0;exitDy=0;entryX=0.5;entryY=1;entryDx=0;entryDy=0;endArrow=none;endFill=0;" edge="1" parent="1" source="1nAmam3GA3gQKHaOLKT9-2" target="OP7S2r6b1ITUXMY4u-60-16">
          <mxGeometry relative="1" as="geometry" />
        </mxCell>
        <mxCell id="1nAmam3GA3gQKHaOLKT9-2" value="Productividad" style="ellipse;whiteSpace=wrap;html=1;dashed=1;" vertex="1" parent="1">
          <mxGeometry x="75.75" y="765" width="88.5" height="50" as="geometry" />
        </mxCell>
        <mxCell id="rf00doKjsVnQoZCSyVtT-2" value="Fecha Final" style="ellipse;whiteSpace=wrap;html=1;" vertex="1" parent="1">
          <mxGeometry x="375" y="750" width="80" height="50" as="geometry" />
        </mxCell>
      </root>
    </mxGraphModel>
  </diagram>
</mxfile>
